<?xml version="1.0" encoding="utf-8" ?>
<svg xmlns="http://www.w3.org/2000/svg" xmlns:xlink="http://www.w3.org/1999/xlink" width="1024" height="1024">
	<path fill="#4A251E" transform="scale(2 2)" d="M152.338 75.7336C186.33 74.6485 219.244 85.0298 241.805 111.944C247.094 118.253 252.997 126.843 263.049 120.311C266.351 118.166 268.568 113.851 271.193 110.929C317.199 59.7254 397.501 67.471 439.518 119.615C465.762 152.183 468.533 191.66 454.737 229.562C431.532 293.31 369.263 349.764 317.207 391.308C314.581 392.917 311.947 395.487 309.487 397.412C299.445 405.273 279.888 422.463 269.109 428.095C251.503 437.295 239.86 426.697 227.142 416.667L169.297 370.469C164.362 366.503 159.19 362.704 154.398 358.582C132.972 369.956 112.879 375.546 88.2267 369.26C65.997 363.591 46.0139 344.43 52.5837 319.99C57.5563 301.492 71.4855 292.593 86.8232 283.82C82.7734 279.37 79.1228 273.965 75.8124 268.932C47.1616 225.376 38.0409 169.599 68.377 124.5C84.9938 99.7974 112.421 81.945 141.912 77.272C145.215 76.7486 148.618 76.4878 151.889 75.8267L152.338 75.7336Z"/>
	<path fill="#BE7D68" transform="scale(2 2)" d="M356.998 86.4925C368.991 87.0028 384.045 91.6795 394.991 96.6486C388.951 97.8497 382.877 99.052 376.791 99.9923C370.964 95.4777 361.49 90.3508 356.998 86.4925Z"/>
	<path fill="#E7D0C4" transform="scale(2 2)" d="M407.043 146.571C420.599 179.497 406.326 222.521 388.35 250.934C385.527 255.396 382.164 259.682 379.657 264.318L379.241 264.494C379.473 260.477 379.248 256.347 379.247 252.316L379.241 151.618C388.485 149.991 397.898 148.685 407.043 146.571Z"/>
	<path fill="#A9B959" transform="scale(2 2)" d="M353.862 233.529C362.533 231.617 358.948 217.553 358.949 209.395L358.94 130.474C358.902 124.17 356.942 115.613 364.22 112.703C368.536 110.977 381.469 109.526 386.796 108.584C394.73 116.696 399.203 126.54 403.526 136.845C397.124 138.143 390.668 139.311 384.24 140.481C380.731 141.119 370.544 141.203 369.458 145.639C368.604 149.125 369.196 162.687 369.195 167.201L369.194 243.428C369.229 267.63 368.56 278.939 343.288 291.387C320.43 302.646 280.856 301.668 268.49 275.822C259.831 257.723 275.473 240.086 291.146 232.798C315.436 221.503 331.229 225.266 353.862 233.529Z"/>
	<path fill="#A9B959" transform="scale(2 2)" d="M157.823 295.243C159.716 292.782 158.782 287.768 158.78 284.824L158.741 218.76C158.74 211.311 155.699 199.06 164.178 196.945C173.963 194.503 184.044 192.828 193.928 190.795L237.583 181.489C249.065 179.048 260.575 176.393 272.101 174.207L272.101 203.607L183.483 222.622C179.534 223.485 170.507 224.453 167.396 227.109C165.635 230.454 166.795 249.16 166.796 253.872L166.796 301.14C167.631 324.356 168.254 338.831 145.625 351.744C129.649 360.861 108.501 364.338 90.7388 359.426C51.0243 348.444 53.7686 313.232 86.8609 295.461C105.057 285.689 128.856 283.557 147.61 293.167C151.003 294.905 153.808 297.655 157.537 295.417L157.823 295.243Z"/>
	<path fill="#BE7D68" transform="scale(2 2)" d="M386.796 108.584C394.064 107.34 401.319 106.062 408.624 105.053C449.685 133.35 462.601 179.292 445.744 224.868C417.853 300.277 337.729 363.568 275.737 410.725C266.279 417.92 256.957 425.91 244.811 417.35C239.198 413.394 231.778 407.692 226.6 403.203C229.445 400.751 232.724 398.667 235.792 396.499C266.681 374.67 296.068 350.878 323.243 324.521C328.098 319.812 340.667 308.258 343.507 302.336C356.645 294.11 367.204 291.592 375.314 274.906C376.9 271.642 377.621 268.116 379.08 264.847L379.241 264.494L379.657 264.318C382.164 259.682 385.527 255.396 388.35 250.934C406.326 222.521 420.599 179.497 407.043 146.571C412.59 146.421 414.241 135.163 403.526 136.845C399.203 126.54 394.73 116.696 386.796 108.584Z"/>
	<path fill="#E7D0C4" transform="scale(2 2)" d="M97.0791 280.304C91.3159 273.033 85.7276 265.77 80.8415 257.864C51.9904 211.181 49.1652 152.163 91.8323 112.583C130.124 77.0619 191.792 76.7509 229.439 113.279C238.063 121.646 241.061 131.435 255.243 131.837C271.094 132.287 273.657 122.146 283.553 112.802C304.54 92.9861 328.553 85.7066 356.998 86.4925C361.49 90.3508 370.964 95.4777 376.791 99.9923C352.32 103.885 348.727 106.977 348.724 131.463L348.735 220.146C326.442 213.544 304.618 213.986 283.553 225.346C263.088 236.383 248.242 259.845 260.581 282.326C273.753 306.323 307.485 312.363 332.002 306.067C335.893 305.067 339.711 303.648 343.507 302.336C340.667 308.258 328.098 319.812 323.243 324.521C296.068 350.878 266.681 374.67 235.792 396.499C232.724 398.667 229.445 400.751 226.6 403.203C206.717 387.879 181.083 368.753 162.816 351.566L163.953 350.443C176.343 338.087 176.992 328.181 176.978 311.807L176.967 234.402C181.274 233.737 185.603 232.62 189.871 231.717L257.147 217.405C263.319 216.091 281.605 214.935 282.28 207.727C282.756 202.651 282.24 195.954 282.253 190.694L282.289 175.713C282.335 157.226 277.823 162.524 261.9 166.008L182.233 182.793C159.913 187.4 148.683 184.556 148.699 210.486L148.71 282.073C131.65 275.567 114.527 275.579 97.0791 280.304Z"/>
</svg>
